<svg fill="url(#0)" stroke-width="0" viewBox="0 0 24 24" height="1em" width="1em" xmlns="http://www.w3.org/2000/svg">
    <defs>
      <linearGradient id="0" x1="0.04" y1="0.31" x2="0.96" y2="0.69">
        <stop offset="43%" stop-color="#ff4ecd"/>
        <stop offset="98%" stop-color="#0072f5"/>
      </linearGradient>
    </defs>
    <path fill="none" d="M0 0h24v24H0zm0 0h24v24H0zm0 0h24v24H0z"></path>
    <path d="M20 0H4v2h16V0zM4 24h16v-2H4v2zM20 4H4c-1.1 0-2 .9-2 2v12c0 1.1.9 2 2 2h16c1.1 0 2-.9 2-2V6c0-1.1-.9-2-2-2zm-8 2.75c1.24 0 2.25 1.01 2.25 2.25s-1.01 2.25-2.25 2.25S9.75 10.24 9.75 9 10.76 6.75 12 6.75zM17 17H7v-1.5c0-1.67 3.33-2.5 5-2.5s5 .83 5 2.5V17z"></path>
</svg>