<svg fill="url(#0)" stroke-width="0" viewBox="0 0 24 24" height="1em" width="1em" xmlns="http://www.w3.org/2000/svg">
    <defs>
        <linearGradient id="0" x1="0.04" y1="0.31" x2="0.96" y2="0.69">
            <stop offset="43%" stop-color="#ff4ecd"/>
            <stop offset="98%" stop-color="#0072f5"/>
        </linearGradient>
    </defs>
    <path fill="none" d="M0 0h24v24H0z"></path>
    <path d="M12 4V1L8 5l4 4V6c3.31 0 6 2.69 6 6 0 1.01-.25 1.97-.7 2.8l1.46 1.46A7.93 7.93 0 0020 12c0-4.42-3.58-8-8-8zm0 14c-3.31 0-6-2.69-6-6 0-1.01.25-1.97.7-2.8L5.24 7.74A7.93 7.93 0 004 12c0 4.42 3.58 8 8 8v3l4-4-4-4v3z"></path>
</svg>