<svg fill="url(#0)" stroke-width="0" viewBox="0 0 24 24" height="1em" width="1em" xmlns="http://www.w3.org/2000/svg"><defs>
      <linearGradient id="0" x1="0.04" y1="0.31" x2="0.96" y2="0.69">
        <stop offset="43%" stop-color="#ff4ecd"/>
        <stop offset="98%" stop-color="#0072f5"/>
      </linearGradient>
    </defs>
    <path fill="none" d="M0 0h24v24H0z"></path><path d="M9 21c0 .5.4 1 1 1h4c.6 0 1-.5 1-1v-1H9v1zm3-19C8.1 2 5 5.1 5 9c0 2.4 1.2 4.5 3 5.7V17c0 .5.4 1 1 1h6c.6 0 1-.5 1-1v-2.3c1.8-1.3 3-3.4 3-5.7 0-3.9-3.1-7-7-7z"></path></svg>