<svg fill="url(#0)" stroke-width="0" viewBox="0 0 24 24" height="1em" width="1em" xmlns="http://www.w3.org/2000/svg"><defs>
      <linearGradient id="0" x1="0.04" y1="0.31" x2="0.96" y2="0.69">
        <stop offset="43%" stop-color="#ff4ecd"/>
        <stop offset="98%" stop-color="#0072f5"/>
      </linearGradient>
    </defs>
    <path fill="none" d="M0 0h24v24H0V0z"></path><path d="M1 21h4V9H1v12zm22-11c0-1.1-.9-2-2-2h-6.31l.95-4.57.03-.32c0-.41-.17-.79-.44-1.06L14.17 1 7.59 7.59C7.22 7.95 7 8.45 7 9v10c0 1.1.9 2 2 2h9c.83 0 1.54-.5 1.84-1.22l3.02-7.05c.09-.23.14-.47.14-.73v-2z"></path></svg>