<svg fill="url(#0)" stroke-width="0" viewBox="0 0 24 24" height="1em" width="1em" xmlns="http://www.w3.org/2000/svg"><defs>
      <linearGradient id="0" x1="0.04" y1="0.31" x2="0.96" y2="0.69">
        <stop offset="43%" stop-color="#ff4ecd"/>
        <stop offset="98%" stop-color="#0072f5"/>
      </linearGradient>
    </defs>
    <path fill="none" d="M0 0h24v24H0z"></path><path d="M1 11h4v11H1zM16 3.25C16.65 2.49 17.66 2 18.7 2 20.55 2 22 3.45 22 5.3c0 2.27-2.91 4.9-6 7.7-3.09-2.81-6-5.44-6-7.7C10 3.45 11.45 2 13.3 2c1.04 0 2.05.49 2.7 1.25zM20 17h-7l-2.09-.73.33-.94L13 16h2.82c.65 0 1.18-.53 1.18-1.18 0-.49-.31-.93-.77-1.11L8.97 11H7v9.02L14 22l8.01-3c-.01-1.1-.9-2-2.01-2z"></path></svg>